<svg width="470" height="513" viewBox="0 0 470 513" fill="none" xmlns="http://www.w3.org/2000/svg">
<path d="M469.421 137.707C469.336 136.704 469.272 135.702 468.866 134.72C468.759 134.464 468.546 134.293 468.418 134.037C468.141 133.504 467.821 133.056 467.458 132.565C466.733 131.562 465.922 130.73 464.941 130.048C464.685 129.877 464.578 129.557 464.301 129.408L240.301 1.40799C237.016 -0.469006 233.005 -0.469006 229.72 1.40799L5.71999 129.408C5.46399 129.579 5.35699 129.877 5.10099 130.048C4.07699 130.752 3.20199 131.605 2.45599 132.672C2.15699 133.099 1.85899 133.483 1.62399 133.952C1.47499 134.229 1.23999 134.421 1.11199 134.72C0.642994 135.893 0.492994 137.109 0.450994 138.304C0.450994 138.432 0.343994 138.56 0.343994 138.688V138.859C0.343994 138.88 0.343994 138.88 0.343994 138.902V373.206C0.343994 373.227 0.343994 373.27 0.343994 373.291V373.355C0.343994 373.568 0.492994 373.76 0.514994 373.974C0.599994 375.467 0.834994 376.961 1.55999 378.326C1.60299 378.411 1.688 378.433 1.731 378.518C2.008 379.009 2.49899 379.329 2.86199 379.777C3.65099 380.758 4.41899 381.718 5.46499 382.38C5.57199 382.444 5.614 382.572 5.7 382.615L229.7 510.615C231.364 511.554 233.177 512.023 235.012 512.023C236.847 512.023 238.66 511.554 240.303 510.615L464.303 382.615C464.41 382.551 464.452 382.423 464.559 382.359C465.54 381.762 466.223 380.866 466.97 379.97C467.397 379.458 467.973 379.074 468.293 378.498C468.336 378.434 468.4 378.391 468.442 378.327C469.018 377.218 469.125 376.002 469.295 374.807C469.359 374.316 469.679 373.868 469.679 373.356V138.688C469.677 138.347 469.443 138.048 469.421 137.707ZM434.52 136.981L356.269 168.277L270.211 43.093L434.52 136.981ZM235.011 29.504L332.078 170.688H137.944L235.011 29.504ZM199.747 43.115L113.71 168.278L35.48 136.981L199.747 43.115ZM21.677 154.432L102.445 186.752L21.677 332.16V154.432ZM117.635 203.392L215.96 382.165L28.248 364.288L117.635 203.392ZM224.344 482.965L59.224 388.629L224.344 404.202V482.965ZM235.011 372.544L135.726 192.021H334.297L235.011 372.544ZM245.677 482.965V404.394L410.712 388.671L245.677 482.965ZM253.997 382.357L352.408 203.456L441.773 364.309L253.997 382.357ZM448.344 332.203L367.533 186.752L448.344 154.432V332.203V332.203Z" fill="white"/>
</svg>
