<svg width="512" height="512" viewBox="0 0 512 512" fill="none" xmlns="http://www.w3.org/2000/svg">
<path d="M436.979 75.0208C336.958 -25.0001 175.057 -25.0151 75.0219 75.0208C-24.999 175.042 -25.014 336.943 75.0219 436.978C175.043 536.999 336.944 537.014 436.979 436.978C536.999 336.958 537.014 175.057 436.979 75.0208ZM256 469.897C138.057 469.897 42.1024 373.942 42.1024 255.999C42.1024 138.056 138.057 42.1023 256 42.1023C373.943 42.1023 469.897 138.057 469.897 256C469.897 373.943 373.943 469.897 256 469.897Z" fill="black"/>
<path d="M298.712 160.23C287.102 160.23 277.689 169.642 277.689 181.252V330.747C277.689 342.357 287.102 351.769 298.712 351.769C310.323 351.769 319.735 342.357 319.735 330.747V181.252C319.735 169.642 310.324 160.23 298.712 160.23Z" fill="black"/>
<path d="M213.287 160.23C201.676 160.23 192.264 169.642 192.264 181.252V330.747C192.264 342.357 201.676 351.769 213.287 351.769C224.897 351.769 234.31 342.357 234.31 330.747V181.252C234.31 169.642 224.898 160.23 213.287 160.23Z" fill="black"/>
</svg>
