<svg width="512" height="512" viewBox="0 0 512 512" fill="none" xmlns="http://www.w3.org/2000/svg">
<path d="M340.447 245.953L234.132 168.67C230.231 165.842 225.051 165.416 220.775 167.614C216.464 169.795 213.772 174.225 213.772 179.012V333.527C213.772 338.366 216.464 342.779 220.775 344.96C222.598 345.88 224.591 346.34 226.601 346.34C229.225 346.34 231.883 345.505 234.132 343.852L340.447 266.637C343.804 264.167 345.763 260.35 345.763 256.295C345.78 252.172 343.77 248.373 340.447 245.953Z" fill="white"/>
<path d="M256.009 0C114.596 0 0 114.596 0 256.009C0 397.37 114.596 511.932 256.009 511.932C397.387 511.932 512 397.353 512 256.009C512.017 114.596 397.387 0 256.009 0ZM256.009 469.218C138.244 469.218 42.7646 373.79 42.7646 256.009C42.7646 138.278 138.244 42.7306 256.009 42.7306C373.756 42.7306 469.218 138.261 469.218 256.009C469.235 373.79 373.756 469.218 256.009 469.218Z" fill="white"/>
</svg>
